<svg xmlns="http://www.w3.org/2000/svg" viewBox="0 0 254.33 254.33"><defs><style>.cls-1{fill-rule:evenodd;fill:rgb(255,255,255)}</style></defs><g id="Layer_2" data-name="Layer 2"><g id="Layer_1-2" data-name="Layer 1"><path class="cls-1" d="M127.17,0C197.4,0,254.33,57.56,254.33,128.56a129.06,129.06,0,0,1-16.39,63.17l-.92,1.63c-.31.5-.52.68-.67.73h-.12c-.15-.07-.1-.42-.1-.47.05-.35.47-3.71.47-3.71h0c3.39-27-11-53.8-36.24-64.74a59.89,59.89,0,0,0-20-4.82c-.91,0-1.82-.07-2.75-.07-33.34,0-60.37,27.33-60.37,61a61.1,61.1,0,0,0,29.16,52.2,17.17,17.17,0,0,0,1.57.73,42.92,42.92,0,0,1,26.78-76l1.07,0c22.9.57,41.28,19.52,41.28,42.81a43,43,0,0,1-1.65,11.86,39.45,39.45,0,0,1-1.46,4.38c-2.58,6.58-5.51,11.78-10.29,16.65-1.53,1.56-3.13,3-4.74,4.34l-.2.17c-14.89,12.61-31.81,15.39-41.83,15.79a54.63,54.63,0,0,1-8.79-.25,92.21,92.21,0,0,1-25.44-6.61c-39.94-18.28-56-63.33-38.47-104.84,13-30.74,43.05-50.73,75.55-50.51h0c44.32,0,80.25,36.33,80.25,81.14a83.32,83.32,0,0,1-.78,11.35h0v.07s0,0,0,0,0,0,.05,0h0v0l.06-.19a105.17,105.17,0,0,0,3.12-25.52c0-57.49-46.1-104.1-103-104.1s-103,46.61-103,104.1a104.19,104.19,0,0,0,57.11,93.21c.48.25,1,.49,1.46.73.15.08.22.11.19.18s-.1,0-.19,0C40.42,238.65,0,188.38,0,128.56,0,57.56,56.94,0,127.17,0"/></g></g></svg>